<?xml version="1.0" encoding="utf-8"?>
<!-- Generator: Adobe Illustrator 25.1.0, SVG Export Plug-In . SVG Version: 6.00 Build 0)  -->
<svg version="1.1" id="Layer_1" xmlns="http://www.w3.org/2000/svg" xmlns:xlink="http://www.w3.org/1999/xlink" x="0px" y="0px"
	 viewBox="0 0 266 70" style="enable-background:new 0 0 266 70;" xml:space="preserve">
<style type="text/css">
	.st0{clip-path:url(#SVGID_2_);}
	.st1{fill:#005A93;}
</style>
<g>
	<defs>
		<rect id="SVGID_1_" x="0.3" y="0.2" width="265.5" height="69.6"/>
	</defs>
	<clipPath id="SVGID_2_">
		<use xlink:href="#SVGID_1_"  style="overflow:visible;"/>
	</clipPath>
	<g id="Group_5593" class="st0">
		<path id="Path_8908" class="st1" d="M120.7,6.8c0,3-2.4,5.4-5.4,5.4c-3,0-5.4-2.4-5.4-5.4c0-3,2.4-5.4,5.4-5.4
			C118.3,1.3,120.7,3.8,120.7,6.8"/>
		<path id="Path_8909" class="st1" d="M29.4,52.4C29,50,31.5,36.1,31.5,36.1l-2.9-0.2c-0.8,3.7-5.6,14.6-5.6,14.6
			c-2.8,5.3-5.4,5-5.4,5c-4.5-0.1-5.1-3.7-5.1-3.7c-0.9-3-0.3-13.8-0.3-13.8c0.3-7.8,3.2-19.2,3.2-19.2C16.4,13.4,19.9,6,19.9,6
			c0.9-1.8,2.5-3.1,4.5-3.6c0.9-0.3,1.9-0.3,2.8-0.1c0.9,0,1.7,0.5,2.2,1.2c0.5,1,0.2,3.8,0.2,3.8c0,3.1,0.5,6.2,1.5,9.2
			c1.6,3.6,3.3,2.6,3.3,2.6l1.8-14.4l-2.4-2.2C31.4,0.1,24,0.2,24,0.2C12.7,1.1,7.7,8.9,7.7,8.9c-6,7.2-7.1,20.6-7.1,20.6
			C-0.7,37,1.8,45.9,1.8,45.9C2.6,48.7,4,51.2,6,53.2c4.1,4,11.7,4,11.7,4C22,57.1,26.2,55.4,29.4,52.4"/>
		<path id="Path_8910" class="st1" d="M51.1,1.8H38.2l-0.1,2.2h2.7l-8.5,50H29v2h18v-1.5H42L51.1,1.8z"/>
		<path id="Path_8911" class="st1" d="M89,54.3c0,0,1.8-15.2,3.4-20.2c0,0,3.6-14.1,7.1-16.1l1.5-0.2v6.6h3.1l2.6-8.9h-6.4
			c0,0-5,1.3-6.6,7.7l0.9-7.1l-11.8,0l-0.2,1.5h2.6l-5.7,36.6l-2.7,0h-3l0.1-0.8L76.8,29c1.7-7.4-2.8-11.3-2.8-11.3
			c-4.8-4.6-14-2.5-14-2.5l-6.6,3l-0.8,12.2l2.5,0.2c0,0,1.5-8.6,7.2-13.8c0,0,4.5-2.8,5.6,2.4c0,0,1.2,8.1-1,10.5
			c0,0-1.3,1.9-5.8,2.7c-2.3,0.7-4.5,1.4-6.6,2.4c0,0-5.8,2.3-7.5,6c0,0-4.8,12,6.2,15.3c2.5,0.8,5.3,0.7,7.7-0.4l1.1-0.8
			c1-0.9,1.8-1.9,2.3-3.1L63.7,56h12.8l19.1,0l0.3-1.7L89,54.3L89,54.3z M67.5,33.6c0,6.1-2.6,15.6-2.6,15.6
			c-2.6,6.1-5.2,4.6-5.2,4.6c-4.1-1.9-3.9-7.8-3.9-7.8c-0.4-4.4,5.7-9.7,5.7-9.7c1.6-1.6,6-3.7,6-3.7L67.5,33.6z"/>
		<path id="Path_8912" class="st1" d="M113.5,54.4l6.1-39h-10.9l-0.4,1.8h1.5l-6.2,37.1h-6.3l-0.3,1.8h22.1l0.2-1.7L113.5,54.4z"/>
		<path id="Path_8913" class="st1" d="M119.3,54.4L119.3,54.4z"/>
		<path id="Path_8914" class="st1" d="M152.5,54.2h-5.4l3.8-27.7c0,0,1.1-8.7-3.1-11.1c-4.5-2-9.9-0.6-12.9,3.3l0.6-3.2l-11.6,0
			l-0.2,1.5h3l-5.7,36.5l-0.2,1l-1.5,0l-0.2,1.7l15,0l18.1,0L152.5,54.2z M141.9,28.5l-4,25.8l-3.8,0v0h-4.2l1.8-12.8l2.4-14
			c0,0,1-9.9,6-10c0,0,2.1,0.1,2.4,2.7C142.4,20.2,142.4,23.7,141.9,28.5"/>
		<path id="Path_8915" class="st1" d="M183.4,16.4L183.4,16.4l-3.4-0.1c-2-0.9-4.2-1.4-6.5-1.3c-12.9-0.7-15.8,9.6-15.8,9.6
			c-1.9,5.1,1.7,10,1.7,10c-9.6,4.6-9.6,10.9-9.6,10.9c-1,6.2,6.5,10.2,6.5,10.2c-3.1,0.7-5.2,3.7-4.7,6.9c1.4,8.7,14.6,7,14.6,7
			c14.9-1.7,14.9-13.4,14.9-13.4c0.3-4.1-2.2-7.8-6-9.2l-12.3-0.8c-7.7-0.6-6.9-4.8-6.9-4.8c0.2-2.9,4.9-4.8,4.9-4.8
			c2.9,2.6,7.8,3,7.8,3c13.7,0.2,15.1-12.5,15.1-12.5c0.5-5.7-2.1-8.7-2.1-8.7h6.2l0,0h-4.4L183.4,16.4z M158.3,56.5l14,0.7
			c0,0,4.2,0.1,3.3,4.9c0,0-0.9,5.3-10.1,6c0,0-10.6,0.5-10.1-6.4C155.4,61.6,155.7,57,158.3,56.5 M175.7,27.1
			c-1.2,6-4.3,10.9-7.1,10.9s-4-4.9-2.9-10.9s4.3-10.9,7.1-10.9S176.8,21.1,175.7,27.1"/>
		<path id="Path_8916" class="st1" d="M197.4,54.6c-4.1-0.7-3.9-4.1-3.9-4.1l5.1-31.9h6.2l0.3-2.5h-6.1l1.1-7.1h-8.7l-1.4,7.4h-6.6
			l3.5,0.1l0.9,1.9h1.7L185.4,42c-0.4,2.2-0.6,4.5-0.6,6.8c0.6,9.9,10.2,8.4,10.2,8.4c7-0.4,9.7-8.4,9.9-9.2
			c-0.2-0.4-0.3-0.8-0.5-1.2C201.5,55.1,197.4,54.6,197.4,54.6"/>
		<path id="Path_8917" class="st1" d="M221.1,14.5c-8.6,0-16.7,9.4-18,20.9c-0.5,3.9,0,7.8,1.3,11.4c0.1-0.1,0.1-0.3,0.1-0.4
			l0.4,1.6c0,0,0,0,0,0.1c2.3,5,6.5,8.3,11.6,8.3c8.6,0,16.7-9.4,17.9-20.9S229.7,14.5,221.1,14.5 M223.5,35.7
			c-1.2,10.7-4.3,19.3-7.1,19.3s-4-8.6-2.9-19.3s4.3-19.3,7.1-19.3S224.7,25.1,223.5,35.7"/>
		<path id="Path_8918" class="st1" d="M259.4,54.1l4.5-30.1c0,0,1.5-8.6-6-8.6c0,0-7-1.1-10.7,4.8l0.5-3.9l-11.4,0v2h3l-6,35.5H230
			l-0.2,2h16.9l0.2-1.7h-4.3l3.8-25.8c0,0,1.5-9.7,5.5-9.9c0,0,3.7-0.6,3.1,3.4l-4.5,32.2h-2.4l-0.2,1.7h17.6l0.2-1.8L259.4,54.1z"
			/>
		<rect id="Rectangle_2878" x="180.7" y="16.4" class="st1" width="7.7" height="2.1"/>
	</g>
</g>
</svg>
